<svg xmlns="http://www.w3.org/2000/svg" viewBox="0 0 600 600" width="600" height="600"><defs>
<linearGradient id="bg" x1="0" y1="0" x2="1" y2="1"><stop offset="0" stop-color="#0a0a24"/><stop offset="1" stop-color="#1a1040"/></linearGradient>
<radialGradient id="gl" cx=".5" cy=".45" r=".55"><stop offset="0" stop-color="#fff1b8" stop-opacity=".55"/><stop offset="1" stop-color="#fff1b8" stop-opacity="0"/></radialGradient>
<linearGradient id="gold" x1="0" y1="0" x2="1" y2="1"><stop offset="0" stop-color="#fff1b8"/><stop offset=".5" stop-color="#f2c14e"/><stop offset="1" stop-color="#a8761d"/></linearGradient>
<linearGradient id="brand" x1="0" y1="1" x2="1" y2="0"><stop offset="0" stop-color="#a78bfa"/><stop offset="1" stop-color="#5ee0c4"/></linearGradient>
<linearGradient id="ice" x1="0" y1="0" x2="1" y2="1"><stop offset="0" stop-color="#e8fbff"/><stop offset=".5" stop-color="#4ca3ff"/><stop offset="1" stop-color="#7c5cff"/></linearGradient>
<linearGradient id="steel" x1="0" y1="0" x2="1" y2="1"><stop offset="0" stop-color="#f8fafc"/><stop offset=".5" stop-color="#9aa4b2"/><stop offset="1" stop-color="#4d5663"/></linearGradient>
<linearGradient id="glass" x1="0" y1="0" x2="1" y2="0"><stop offset="0" stop-color="#bfe9ff" stop-opacity=".9"/><stop offset=".5" stop-color="#eaf9ff" stop-opacity=".95"/><stop offset="1" stop-color="#7cc4ee" stop-opacity=".9"/></linearGradient>
</defs><rect width="600" height="600" fill="url(#bg)"/><rect width="600" height="600" fill="url(#gl)"/>
<ellipse cx="300" cy="520" rx="170" ry="22" fill="#000" opacity=".35"/><circle cx="271" cy="389" r="2" fill="#fff" opacity="0.78"/><circle cx="552" cy="24" r="2.5" fill="#fff" opacity="0.77"/><circle cx="265" cy="342" r="1" fill="#fff" opacity="0.84"/><circle cx="125" cy="200" r="2.5" fill="#fff" opacity="0.82"/><circle cx="399" cy="288" r="1" fill="#fff" opacity="0.64"/><circle cx="23" cy="384" r="1.5" fill="#fff" opacity="0.54"/><circle cx="196" cy="479" r="2.5" fill="#fff" opacity="0.40"/><circle cx="83" cy="81" r="2.5" fill="#fff" opacity="0.38"/><circle cx="11" cy="456" r="1" fill="#fff" opacity="0.43"/><circle cx="230" cy="94" r="1.5" fill="#fff" opacity="0.47"/><circle cx="213" cy="286" r="1.5" fill="#fff" opacity="0.41"/><circle cx="211" cy="467" r="2.5" fill="#fff" opacity="0.48"/><circle cx="379" cy="222" r="1.5" fill="#fff" opacity="0.86"/><circle cx="280" cy="43" r="2" fill="#fff" opacity="0.48"/><circle cx="13" cy="315" r="2" fill="#fff" opacity="0.34"/><circle cx="373" cy="429" r="2" fill="#fff" opacity="0.59"/><circle cx="333" cy="104" r="2.5" fill="#fff" opacity="0.58"/><circle cx="190" cy="39" r="2" fill="#fff" opacity="0.89"/><circle cx="33" cy="393" r="2" fill="#fff" opacity="0.81"/><circle cx="28" cy="291" r="2.5" fill="#fff" opacity="0.52"/><circle cx="19" cy="241" r="1" fill="#fff" opacity="0.72"/><circle cx="211" cy="70" r="1.5" fill="#fff" opacity="0.86"/><circle cx="483" cy="186" r="2" fill="#fff" opacity="0.84"/><circle cx="266" cy="407" r="2.5" fill="#fff" opacity="0.36"/><circle cx="386" cy="450" r="2" fill="#fff" opacity="0.32"/><circle cx="103" cy="116" r="2" fill="#fff" opacity="0.61"/><circle cx="381" cy="480" r="1.5" fill="#fff" opacity="0.50"/><circle cx="568" cy="57" r="2" fill="#fff" opacity="0.71"/><circle cx="323" cy="100" r="1" fill="#fff" opacity="0.68"/><circle cx="326" cy="257" r="1.5" fill="#fff" opacity="0.73"/><circle cx="92" cy="317" r="2.5" fill="#fff" opacity="0.32"/><circle cx="362" cy="433" r="2" fill="#fff" opacity="0.57"/><circle cx="441" cy="84" r="1" fill="#fff" opacity="0.89"/><circle cx="43" cy="420" r="2.5" fill="#fff" opacity="0.50"/><circle cx="222" cy="76" r="1.5" fill="#fff" opacity="0.68"/><circle cx="433" cy="64" r="1.5" fill="#fff" opacity="0.56"/><circle cx="162" cy="40" r="2.5" fill="#fff" opacity="0.48"/><circle cx="474" cy="327" r="1.5" fill="#fff" opacity="0.89"/><circle cx="474" cy="259" r="2" fill="#fff" opacity="0.59"/><circle cx="308" cy="250" r="2.5" fill="#fff" opacity="0.84"/><circle cx="470" cy="130" r="64" fill="#f4ecd0"/><circle cx="450" cy="112" r="12" fill="#d9cfa9"/><circle cx="490" cy="146" r="16" fill="#d9cfa9"/><g transform="translate(290 300) rotate(35)"><path d="M0 -170 C 70 -90 70 40 44 110 H-44 C -70 40 -70 -90 0 -170Z" fill="#eef1ff" stroke="#9aa2cf" stroke-width="5"/><circle cy="-50" r="28" fill="#14102b" stroke="#5ee0c4" stroke-width="8"/><path d="M-44 60 L-96 140 L-44 118Z M44 60 L96 140 L44 118Z" fill="#a78bfa" stroke="#6a4fd0" stroke-width="4" stroke-linejoin="round"/><path d="M-26 110 L0 210 L26 110Z" fill="#ffb347"/><path d="M-12 110 L0 170 L12 110Z" fill="#fff1b8"/></g>
<g transform="translate(24 548) scale(.07)" opacity=".8"><path d="M342 140 A130 130 0 1 0 352 330" fill="none" stroke="url(#brand)" stroke-width="46" stroke-linecap="round"/><path d="M330 150 L400 92" stroke="#5ee0c4" stroke-width="46" stroke-linecap="round"/><path d="M342 72 h66 a12 12 0 0 1 12 12 v66" fill="none" stroke="#5ee0c4" stroke-width="46" stroke-linecap="round" stroke-linejoin="round"/></g>
<text x="62" y="576" font-family="Inter,Helvetica,Arial,sans-serif" font-size="15" font-weight="800" letter-spacing="2" fill="#fff" fill-opacity=".7">COINFORCE ORIGINALS</text></svg>