<svg xmlns="http://www.w3.org/2000/svg" viewBox="0 0 1200 400" width="1200" height="400"><defs><linearGradient id="bg" x1="0" y1="0" x2="1" y2="1"><stop offset="0" stop-color="#131824"/><stop offset="1" stop-color="#0a0d14"/></linearGradient><linearGradient id="br" x1="0" y1="0" x2="1" y2="0"><stop offset="0" stop-color="#a78bfa"/><stop offset="1" stop-color="#5ee0c4"/></linearGradient><linearGradient id="f" x1="0" y1="0" x2="0" y2="1"><stop offset="0" stop-color="#a78bfa" stop-opacity="0.25"/><stop offset="1" stop-color="#a78bfa" stop-opacity="0"/></linearGradient><pattern id="dots" width="26" height="26" patternUnits="userSpaceOnUse"><circle cx="2" cy="2" r="1.3" fill="#fff" fill-opacity=".07"/></pattern></defs><rect width="1200" height="400" fill="url(#bg)"/><rect width="1200" height="400" fill="url(#dots)"/><path d="M0 300 L120 290 L200 300 L260 210 L320 320 L380 250 L470 262 L560 180 L640 230 L740 150 L830 196 L930 110 L1040 150 L1200 70 V400H0Z" fill="url(#f)"/><path d="M0 300 L120 290 L200 300 L260 210 L320 320 L380 250 L470 262 L560 180 L640 230 L740 150 L830 196 L930 110 L1040 150 L1200 70" fill="none" stroke="url(#br)" stroke-width="6" stroke-linejoin="round" stroke-linecap="round"/><circle cx="930" cy="110" r="9" fill="#5ee0c4"/><circle cx="930" cy="110" r="20" fill="#5ee0c4" fill-opacity=".2"/><g transform="translate(972 318) scale(0.1)" opacity="0.9"><path d="M342 140 A130 130 0 1 0 352 330" fill="none" stroke="#a78bfa" stroke-width="46" stroke-linecap="round"/><path d="M330 150 L400 92" stroke="#5ee0c4" stroke-width="46" stroke-linecap="round"/><path d="M342 72 h66 a12 12 0 0 1 12 12 v66" fill="none" stroke="#5ee0c4" stroke-width="46" stroke-linecap="round" stroke-linejoin="round"/></g><text x="1024" y="352" font-family="Inter,Segoe UI,Helvetica,Arial,sans-serif" font-size="20" font-weight="800" letter-spacing="2" fill="#fff" fill-opacity="0.9">COINFORCE</text></svg>